
<svg version="1.1" id="Layer_1" xmlns="http://www.w3.org/2000/svg" xmlns:xlink="http://www.w3.org/1999/xlink" x="0px" y="0px"
	 viewBox="0 0 100 100" style="enable-background:new 0 0 100 100;" xml:space="preserve">
<g>
	<g id="XMLID_113_">
		<path id="XMLID_117_" class="st0" d="M0.5,79.5l6.7-7c3.6,5,7.8,7.5,12.5,7.5c4.7,0,8.3-1.3,10.7-4c2.4-2.7,3.6-6,3.6-10
			c0-4-1.6-7.3-4.7-9.8c-3.1-2.5-7.1-3.8-12.1-3.8H3.7l4.5-42H38v10.2H17.6l-2.2,22h5c6.7,0,12.3,2.3,16.9,7c4.6,4.6,7,10.3,7,16.9
			c0,6.6-2.3,12.2-7,16.9c-4.7,4.6-10.3,7-16.9,7c-4,0-7.8-1-11.3-2.9C5.5,85.4,2.7,82.8,0.5,79.5z" fill="#fff"/>
		<path id="XMLID_114_" class="st0" d="M99.5,33v35.4c0,7.4-2.3,12.9-6.8,16.4c-4.5,3.5-10,5.2-16.3,5.2c-6.3,0-11.8-1.7-16.4-5.2
			c-4.6-3.5-6.9-9-6.9-16.4V32.9c0-7.6,2.1-13.3,6.2-17.2c4.2-3.9,9.9-5.9,17.2-5.9c7.3,0,12.9,2.1,16.9,6.2
			C97.5,20.1,99.5,25.8,99.5,33z M89.4,66.9V35.2c0-4.9-1-8.5-3-11c-2-2.5-5.4-3.8-10.1-3.8c-4.7,0-8.1,1.2-10.1,3.7
			c-2,2.5-3,6.1-3,11V67c0,4.1,1.2,7.3,3.5,9.6c2.3,2.3,5.5,3.4,9.5,3.4c4,0,7.3-1.2,9.7-3.5C88.2,74.2,89.4,71,89.4,66.9z"  fill="#fff"/>
	</g>
</g>
</svg>
